<svg width="40" height="40" viewBox="0 0 40 40" fill="none" xmlns="http://www.w3.org/2000/svg">
<circle cx="20" cy="20" r="20" fill="#898989"/>
<path d="M20.8335 20.8333V25.4875L22.3568 23.9641L23.536 25.1433L20.0002 28.6783L16.4643 25.1433L17.6435 23.9641L19.1668 25.4875V20.8333H20.8335ZM20.0002 11.6666C21.431 11.6667 22.8119 12.1926 23.8803 13.1442C24.9488 14.0959 25.6302 15.407 25.7952 16.8283C26.832 17.1111 27.7366 17.7492 28.3507 18.6312C28.9648 19.5133 29.2494 20.583 29.1548 21.6536C29.0602 22.7242 28.5924 23.7275 27.8331 24.4881C27.0738 25.2488 26.0714 25.7184 25.001 25.815V24.1366C25.3845 24.0819 25.7532 23.9513 26.0856 23.7524C26.4181 23.5536 26.7076 23.2906 26.9373 22.9786C27.167 22.6667 27.3322 22.3121 27.4234 21.9357C27.5145 21.5592 27.5298 21.1683 27.4683 20.7859C27.4067 20.4034 27.2696 20.037 27.0649 19.7082C26.8602 19.3793 26.5921 19.0945 26.2762 18.8704C25.9602 18.6462 25.6028 18.4873 25.2247 18.4028C24.8467 18.3183 24.4556 18.31 24.0743 18.3783C24.2048 17.7707 24.1978 17.1416 24.0537 16.5371C23.9096 15.9326 23.6321 15.3679 23.2415 14.8846C22.8509 14.4012 22.3572 14.0113 21.7964 13.7435C21.2356 13.4756 20.622 13.3366 20.0006 13.3366C19.3791 13.3366 18.7655 13.4756 18.2048 13.7435C17.644 14.0113 17.1502 14.4012 16.7597 14.8846C16.3691 15.3679 16.0916 15.9326 15.9475 16.5371C15.8034 17.1416 15.7963 17.7707 15.9268 18.3783C15.1665 18.2355 14.3807 18.4006 13.7421 18.8373C13.1035 19.2739 12.6646 19.9463 12.5218 20.7066C12.379 21.4669 12.5441 22.2528 12.9808 22.8913C13.4174 23.5299 14.0899 23.9689 14.8502 24.1116L15.0002 24.1366V25.815C13.9297 25.7186 12.9272 25.249 12.1678 24.4885C11.4084 23.7279 10.9404 22.7246 10.8457 21.654C10.751 20.5834 11.0356 19.5135 11.6496 18.6314C12.2637 17.7493 13.1682 17.1111 14.2052 16.8283C14.3699 15.4069 15.0513 14.0957 16.1198 13.144C17.1883 12.1923 18.5693 11.6665 20.0002 11.6666Z" fill="white"/>
</svg>
