<svg width="56" height="56" viewBox="0 0 56 56" fill="none" xmlns="http://www.w3.org/2000/svg">
<g filter="url(#filter0_d)">
<circle cx="28" cy="28" r="13" fill="white"/>
<circle cx="28" cy="28" r="11.5" stroke="white" stroke-width="3"/>
</g>
<path d="M27.9985 37.0285C23.0124 37.0285 18.9707 32.9867 18.9707 28.0007C18.9707 23.0146 23.0124 18.9729 27.9985 18.9729C32.9845 18.9729 37.0263 23.0146 37.0263 28.0007C37.0263 32.9867 32.9845 37.0285 27.9985 37.0285ZM24.3874 29.8062V31.6118H31.6096V29.8062H24.3874ZM24.3874 27.0979C24.7465 27.0979 25.091 26.9552 25.3449 26.7013C25.5989 26.4473 25.7415 26.1029 25.7415 25.7437C25.7415 25.3846 25.5989 25.0401 25.3449 24.7862C25.091 24.5322 24.7465 24.3896 24.3874 24.3896C24.0282 24.3896 23.6838 24.5322 23.4298 24.7862C23.1759 25.0401 23.0332 25.3846 23.0332 25.7437C23.0332 26.1029 23.1759 26.4473 23.4298 26.7013C23.6838 26.9552 24.0282 27.0979 24.3874 27.0979ZM31.6096 27.0979C31.9687 27.0979 32.3132 26.9552 32.5671 26.7013C32.8211 26.4473 32.9638 26.1029 32.9638 25.7437C32.9638 25.3846 32.8211 25.0401 32.5671 24.7862C32.3132 24.5322 31.9687 24.3896 31.6096 24.3896C31.2504 24.3896 30.906 24.5322 30.6521 24.7862C30.3981 25.0401 30.2554 25.3846 30.2554 25.7437C30.2554 26.1029 30.3981 26.4473 30.6521 26.7013C30.906 26.9552 31.2504 27.0979 31.6096 27.0979Z" fill="#FFB436"/>
<defs>
<filter id="filter0_d" x="0" y="0" width="56" height="56" filterUnits="userSpaceOnUse" color-interpolation-filters="sRGB">
<feFlood flood-opacity="0" result="BackgroundImageFix"/>
<feColorMatrix in="SourceAlpha" type="matrix" values="0 0 0 0 0 0 0 0 0 0 0 0 0 0 0 0 0 0 127 0"/>
<feOffset/>
<feGaussianBlur stdDeviation="7.5"/>
<feColorMatrix type="matrix" values="0 0 0 0 0.999207 0 0 0 0 0.707045 0 0 0 0 0.212313 0 0 0 0.21 0"/>
<feBlend mode="normal" in2="BackgroundImageFix" result="effect1_dropShadow"/>
<feBlend mode="normal" in="SourceGraphic" in2="effect1_dropShadow" result="shape"/>
</filter>
</defs>
</svg>
